<svg xmlns="http://www.w3.org/2000/svg" width="24" height="24" fill="none" viewBox="0 0 24 24">
    <g clip-path="url(#clip0)">
        <path fill="#0DA7A9" fill-rule="evenodd" d="M9 1.5H1.5V6H9V1.5zM1.5 0C1.102 0 .72.158.44.44.157.72 0 1.101 0 1.5V6c0 .398.158.78.44 1.06.28.282.662.44 1.06.44H9c.398 0 .78-.158 1.06-.44.282-.28.44-.662.44-1.06V1.5c0-.398-.158-.78-.44-1.06C9.78.157 9.399 0 9 0H1.5zm21 18H15v4.5h7.5V18zM15 16.5c-.398 0-.78.158-1.06.44-.282.28-.44.662-.44 1.06v4.5c0 .398.158.78.44 1.06.28.282.662.44 1.06.44h7.5c.398 0 .78-.158 1.06-.44.282-.28.44-.662.44-1.06V18c0-.398-.158-.78-.44-1.06-.28-.282-.662-.44-1.06-.44H15zM9 12H1.5v10.5H9V12zm-7.5-1.5c-.398 0-.78.158-1.06.44-.282.28-.44.662-.44 1.06v10.5c0 .398.158.78.44 1.06.28.282.662.44 1.06.44H9c.398 0 .78-.158 1.06-.44.282-.28.44-.662.44-1.06V12c0-.398-.158-.78-.44-1.06-.28-.282-.662-.44-1.06-.44H1.5zm21-9H15V12h7.5V1.5zM15 0c-.398 0-.78.158-1.06.44-.282.28-.44.662-.44 1.06V12c0 .398.158.78.44 1.06.28.282.662.44 1.06.44h7.5c.398 0 .78-.158 1.06-.44.282-.28.44-.662.44-1.06V1.5c0-.398-.158-.78-.44-1.06C23.28.157 22.899 0 22.5 0H15z" clip-rule="evenodd"/>
    </g>
    <defs>
        <clipPath id="clip0">
            <path fill="#fff" d="M0 0H24V24H0z"/>
        </clipPath>
    </defs>
</svg>
