<svg xmlns="http://www.w3.org/2000/svg" width="24" height="24" fill="none" viewBox="0 0 24 24">
    <path fill="#ACB0CD" d="M0 0h1.5v24H0V0zm1.5 22.5H24V24H1.5v-1.5z"/>
    <path fill="#ACB0CD" fill-rule="evenodd" d="M21.585 6.468l-6.524 8.157L10.5 10.06l-5.469 5.471-1.062-1.062 6.531-6.53 4.438 4.436 5.475-6.844 1.172.936v.001z" clip-rule="evenodd"/>
    <path fill="#ACB0CD" fill-rule="evenodd" d="M15 5.25c0-.199.079-.39.22-.53.14-.141.331-.22.53-.22h6c.199 0 .39.079.53.22.141.14.22.331.22.53v6c0 .199-.079.39-.22.53-.14.141-.331.22-.53.22s-.39-.079-.53-.22c-.141-.14-.22-.331-.22-.53V6h-5.25c-.199 0-.39-.079-.53-.22-.141-.14-.22-.331-.22-.53z" clip-rule="evenodd"/>
</svg>
