<svg xmlns="http://www.w3.org/2000/svg" width="18" height="24" fill="none" viewBox="0 0 18 24">
    <path fill="#ACB0CD" fill-rule="evenodd" d="M13.877.102c.146.085.26.218.322.376s.068.332.018.494L11.515 9.75H16.5c.146 0 .29.043.412.123.123.08.219.195.277.33.058.134.075.283.05.427-.025.144-.093.278-.193.384l-12 12.75c-.116.124-.27.204-.438.229-.168.024-.34-.009-.486-.094-.146-.085-.26-.218-.321-.376-.062-.157-.068-.331-.018-.494l2.701-8.779H1.5c-.146 0-.29-.043-.412-.123-.123-.08-.219-.195-.277-.33-.058-.134-.075-.283-.05-.427.025-.144.093-.278.193-.384l12-12.75c.116-.124.27-.204.438-.229.167-.024.338.009.485.094v.001zM3.235 12.75H7.5c.117 0 .233.027.338.08.105.053.196.13.265.224.07.095.117.204.136.32.02.116.012.234-.022.346l-2.052 6.665 8.598-9.135H10.5c-.117 0-.233-.027-.338-.08-.105-.053-.196-.13-.265-.224-.07-.095-.117-.204-.136-.32-.02-.116-.013-.234.022-.346l2.052-6.665-8.6 9.135z" clip-rule="evenodd"/>
</svg>
