<svg xmlns="http://www.w3.org/2000/svg" width="260" height="106" fill="none" viewBox="0 0 260 106">
    <g filter="url(#filter0_d)">
        <path fill="#fff" d="M48.062.295L30.56 48.43h-1.814L12.423 2.974H8.07L24.665 48.43h-2.902L4.17.295h10.157l15.326 42.571 14.51-39.919h-4.354L29.562 31.373l-1.36-4.108L37.905.295h10.157zM59.76 9.404V45.75h4.08V13.065h2.721V48.52H56.95V6.725h6.892V3.063h-6.892V.384h9.612v9.11l-6.801-.09zM113.898 39.41v9.11h-35.82v-7.234l19.588-28.22h3.355L80.799 42.088v3.662h30.379v-3.662H85.514l22.762-32.685H80.073V.294h33.372v2.68H82.794v3.661h30.651l-22.762 32.66 23.215.088v.027zM164.772 48.43h-10.066l-4.443-11.967h-23.397l-3.446 9.288h4.172l2.085-5.626h2.902l-3.083 8.305h-9.975l5.441-14.735h27.296l4.443 11.967h4.172L145.094 2.885h-5.713l-8.978 24.38h16.595l-4.806-13.128-3.537 9.377h-2.902l6.439-17.325 8.705 23.666h-24.575L137.295 0h9.703l17.774 48.43zM207.303 15.566c0 5.894-2.539 10.538-7.164 13.128l-1.632-2.144c4.08-2.41 5.985-6.17 5.985-10.984 0-7.77-5.804-12.592-14.782-12.592h-14.147V45.75h4.081V22.326h2.811l17.502 23.398h4.807l-17.593-23.398h2.721c6.075 0 7.798-3.215 7.798-6.787 0-4.019-2.902-6.162-7.436-6.162h-7.799v9.288h-2.72V6.635h10.519c6.167 0 10.157 3.483 10.157 8.93 0 5.091-2.902 8.574-7.89 9.289l17.775 23.665h-11.608l-16.142-21.728v21.701h-9.612V.385h16.867c11.245-.09 17.502 6.609 17.502 15.182zM256 24.318c0 14.467-8.978 24.112-22.308 24.112h-14.963V6.635h15.416c9.341 0 14.963 6.609 14.963 17.683 0 10.627-6.076 17.771-15.053 17.771h-8.525V12.976h2.721V39.41h5.804c7.436 0 12.242-5.983 12.242-15.003 0-9.645-4.444-15.003-12.242-15.003h-12.696V45.75h12.242c11.88 0 19.588-8.395 19.588-21.433 0-12.146-5.985-21.344-19.134-21.344h-15.417V.294h15.417C247.295.295 256 8.869 256 24.319zM125.506 71.65h1.088v13.574c0 4.822 2.539 7.68 7.164 7.68s7.164-2.858 7.164-7.68V71.649h1.088v13.575c0 5.269-2.902 8.662-8.252 8.662-5.35 0-8.252-3.304-8.252-8.662V71.649zM155.613 73.346V93.53h-1.088V71.65h1.088l14.963 20.094V71.649h1.088v21.88h-1.088l-14.963-20.183zM184.088 71.65h1.088v21.88h-1.088V71.65zM203.494 72.632h-7.436v-.983H212.2v.983h-7.618v20.897h-1.088V72.632zM230.881 84.241l-7.074 9.288h-3.355l8.706-11.252-8.071-10.628h3.355l6.53 8.752 6.619-8.752h3.356l-8.071 10.628 8.615 11.252h-3.265l-7.345-9.288z"/>
        <path fill="url(#paint0_linear)" fill-rule="evenodd" d="M115.349 81.741c.181.06.343.167.471.308.127.14.215.311.255.496-.01.181-.077.356-.19.5-.114.143-.269.25-.445.303l-1.36.626 1.36.625c.189.045.36.147.49.29.129.144.211.323.235.514-.016.193-.095.376-.226.52-.131.146-.306.245-.499.283L90.774 97.46c-.706.238-1.471.238-2.177 0L63.841 86.626c-.177-.054-.332-.16-.446-.304-.113-.144-.18-.318-.19-.5.004-.194.066-.383.18-.542.112-.16.271-.281.456-.35l1.36-.626-1.36-.625c-.202-.053-.382-.169-.512-.33-.13-.16-.206-.358-.214-.563.017-.203.096-.396.225-.555.129-.16.303-.277.5-.338l1.36-.625-1.36-.626c-.201-.053-.38-.168-.511-.329-.13-.16-.206-.358-.214-.564.004-.206.077-.406.209-.568.13-.161.312-.275.517-.325l24.484-11.163c.7-.268 1.477-.268 2.177 0l24.847 10.717c.191.059.357.178.472.34.115.162.172.356.163.553-.015.191-.082.375-.194.532-.111.157-.264.282-.441.361l-1.36.625 1.36.92zm-26.57-12.77L64.566 80.043l1.995.893 21.764-10.002c.7-.268 1.477-.268 2.177 0l22.127 9.645 1.995-.893L90.048 69.06c-.185-.122-.4-.195-.623-.21-.222-.016-.445.026-.646.12zm1.632 21.611c-.2.088-.416.134-.635.134-.219 0-.435-.046-.635-.134l-17.955-7.859 17.683-7.948c.2-.089.416-.135.635-.135.219 0 .435.046.635.135l17.865 7.859-17.593 7.948zm20.948-6.52l-1.995-.892-18.59 8.573c-.7.268-1.477.268-2.177 0l-18.68-8.216-1.996.893 21.22 9.19c.419.089.852.089 1.27 0l20.948-9.547zm-20.857-10.27c-.7-.267-1.477-.267-2.177 0l-18.59 8.485-2.086-.893 20.948-9.467c.2-.088.416-.133.635-.133.219 0 .435.045.635.133l21.311 9.199-1.995.893-18.681-8.216zM66.56 81.92l-1.995.893 1.995.893 1.995-.893-1.995-.893zm48.063 3.572L90.411 96.449c-.2.09-.416.135-.635.135-.219 0-.435-.046-.635-.135L64.566 85.94l1.995-.894 22.036 9.618c.329.189.716.252 1.089.179.368-.016.734-.076 1.088-.179l21.855-9.912 1.995.74zm-3.99-2.947l1.995.893 1.995-.893-1.995-.893-1.995.893z" clip-rule="evenodd"/>
        <path fill="#fff" fill-rule="evenodd" d="M249.018 75.49c1.223.476 2.585.476 3.809 0 .565-.242 1.086-.574 1.541-.983.464-.41.808-.933.998-1.518.259-.591.383-1.232.362-1.875.012-.643-.111-1.282-.362-1.876-.246-.556-.583-1.07-.998-1.518-.443-.422-.97-.75-1.547-.966-.577-.215-1.192-.312-1.808-.284-.653-.012-1.302.11-1.905.357-.582.209-1.109.544-1.541.982-.464.41-.808.934-.998 1.519-.484 1.204-.484 2.546 0 3.75.212.574.553 1.093.998 1.519.457.337.942.636 1.451.893zm3.446-.625c-.493.182-1.016.273-1.542.267v-.116c-.55.03-1.102-.031-1.632-.178-.496-.183-.934-.49-1.27-.893-.354-.36-.631-.784-.816-1.25-.218-.58-.307-1.2-.26-1.816.047-.617.228-1.216.532-1.757.338-.6.841-1.096 1.451-1.429.636-.353 1.355-.538 2.086-.535.565-.01 1.125.111 1.632.357.477.175.91.45 1.27.804.359.354.638.78.816 1.25.229.504.323 1.057.272 1.607-.002.547-.094 1.09-.272 1.608-.185.466-.462.891-.816 1.25-.453.325-.94.604-1.451.83zm-3.356-.893v-5.627h1.633c.551-.032 1.096.126 1.541.447.168.14.298.32.377.524.079.202.105.421.077.637.009.18-.018.358-.08.527-.063.169-.159.324-.283.455-.076.134-.18.251-.305.343-.125.093-.268.158-.42.193l1.541 2.411h-.997l-1.27-2.233h-.725v2.233l-1.089.09zm1.633-3.037h-.635l.091-1.786h.544c.284-.027.57.036.816.179.088.078.159.175.206.283.047.108.069.224.066.342-.008.26-.104.512-.272.714-.232.18-.521.275-.816.268z" clip-rule="evenodd"/>
        <path fill="#fff" d="M23.78 81.044c1.685.264 2.96.85 3.823 1.761.863.891 1.295 2.085 1.295 3.583 0 1.822-.658 3.209-1.973 4.16-1.316.952-3.279 1.427-5.89 1.427h-9.372V70.721h8.756c2.282 0 4.07.465 5.365 1.396 1.295.932 1.942 2.268 1.942 4.008 0 1.276-.349 2.328-1.048 3.158-.699.83-1.665 1.417-2.898 1.761zm-11.07-9.412v9.109h7.74c1.994 0 3.535-.385 4.625-1.154 1.09-.79 1.634-1.923 1.634-3.4 0-1.478-.545-2.602-1.634-3.371-1.09-.79-2.631-1.184-4.625-1.184h-7.74zm8.387 19.432c2.24 0 3.926-.384 5.057-1.153 1.13-.77 1.696-1.954 1.696-3.553 0-1.62-.566-2.814-1.696-3.583-1.13-.77-2.816-1.154-5.057-1.154h-8.386v9.443h8.386zM40.41 84.718v7.257H39.36v-7.257l-8.725-13.997h1.14l8.14 12.995 8.14-12.995h1.11l-8.757 13.997z"/>
    </g>
    <defs>
        <linearGradient id="paint0_linear" x1="63.188" x2="116.029" y1="82.572" y2="82.572" gradientUnits="userSpaceOnUse">
            <stop stop-color="#8255A0"/>
            <stop offset=".26" stop-color="#7A7CB3"/>
            <stop offset=".59" stop-color="#72A6C8"/>
            <stop offset=".85" stop-color="#6DBFD5"/>
            <stop offset="1" stop-color="#6BC9DA"/>
        </linearGradient>
        <filter id="filter0_d" width="259.83" height="105.637" x=".17" y="0" color-interpolation-filters="sRGB" filterUnits="userSpaceOnUse">
            <feFlood flood-opacity="0" result="BackgroundImageFix"/>
            <feColorMatrix in="SourceAlpha" values="0 0 0 0 0 0 0 0 0 0 0 0 0 0 0 0 0 0 127 0"/>
            <feOffset dy="4"/>
            <feGaussianBlur stdDeviation="2"/>
            <feColorMatrix values="0 0 0 0 0 0 0 0 0 0 0 0 0 0 0 0 0 0 0.25 0"/>
            <feBlend in2="BackgroundImageFix" result="effect1_dropShadow"/>
            <feBlend in="SourceGraphic" in2="effect1_dropShadow" result="shape"/>
        </filter>
    </defs>
</svg>
